<svg width="47" height="47" viewBox="0 0 47 47" fill="none" xmlns="http://www.w3.org/2000/svg">
<path d="M23.5 4.39979C18.8499 4.39998 14.3516 6.0548 10.8099 9.06816C7.26829 12.0815 4.91444 16.2568 4.16955 20.8468C3.42466 25.4369 4.33735 30.1422 6.7443 34.1209C9.15125 38.0996 12.8954 41.0921 17.3068 42.5628C18.286 42.7342 18.6532 42.1467 18.6532 41.6326C18.6532 41.1675 18.6287 39.6253 18.6287 37.9852C13.7083 38.8909 12.4354 36.7858 12.0437 35.6842C11.6091 34.6129 10.9202 33.6635 10.0365 32.918C9.35104 32.5508 8.37187 31.6451 10.012 31.6207C10.6382 31.6886 11.2388 31.9065 11.763 32.2559C12.2871 32.6054 12.7193 33.076 13.0229 33.6279C13.2908 34.1091 13.6509 34.5326 14.0827 34.8744C14.5146 35.2161 15.0096 35.4693 15.5394 35.6193C16.0693 35.7694 16.6235 35.8135 17.1704 35.749C17.7173 35.6845 18.2461 35.5127 18.7265 35.2435C18.8113 34.2479 19.255 33.3171 19.975 32.6243C15.6177 32.1347 11.0646 30.4456 11.0646 22.9551C11.0371 21.0088 11.7553 19.1257 13.0719 17.692C12.4732 16.0005 12.5432 14.1441 13.2677 12.5025C13.2677 12.5025 14.9078 11.9884 18.6531 14.5097C21.8575 13.6284 25.2404 13.6284 28.4448 14.5097C32.1901 11.9639 33.8302 12.5025 33.8302 12.5025C34.5548 14.1441 34.6248 16.0005 34.026 17.692C35.3466 19.1232 36.0654 21.0079 36.0333 22.9551C36.0333 30.4701 31.4557 32.1347 27.0984 32.6243C27.5658 33.098 27.9257 33.6667 28.1538 34.2919C28.3819 34.917 28.4728 35.5839 28.4203 36.2472C28.4203 38.8666 28.3958 40.9717 28.3958 41.6327C28.3958 42.1467 28.763 42.7587 29.7422 42.5629C34.1458 41.0802 37.8792 38.0807 40.2759 34.1C42.6726 30.1192 43.5766 25.4163 42.8265 20.8307C42.0765 16.2451 39.7212 12.0752 36.1811 9.06554C32.641 6.05585 28.1466 4.40221 23.5 4.39979Z" fill="#D4D4D4"/>
</svg>
