<svg width="47" height="47" viewBox="0 0 47 47" fill="none" xmlns="http://www.w3.org/2000/svg">
<path d="M40.0871 3.91666H6.91293C6.54002 3.91148 6.16974 3.97981 5.82325 4.11775C5.47675 4.25569 5.16082 4.46053 4.89349 4.72058C4.62617 4.98063 4.41269 5.29079 4.26525 5.63336C4.11781 5.97592 4.03929 6.34417 4.03418 6.71708V40.2829C4.03929 40.6558 4.11781 41.0241 4.26525 41.3666C4.41269 41.7092 4.62617 42.0194 4.89349 42.2794C5.16082 42.5395 5.47675 42.7443 5.82325 42.8822C6.16974 43.0202 6.54002 43.0885 6.91293 43.0833H40.0871C40.46 43.0885 40.8303 43.0202 41.1768 42.8822C41.5233 42.7443 41.8392 42.5395 42.1065 42.2794C42.3739 42.0194 42.5873 41.7092 42.7348 41.3666C42.8822 41.0241 42.9607 40.6558 42.9658 40.2829V6.71708C42.9607 6.34417 42.8822 5.97592 42.7348 5.63336C42.5873 5.29079 42.3739 4.98063 42.1065 4.72058C41.8392 4.46053 41.5233 4.25569 41.1768 4.11775C40.8303 3.97981 40.46 3.91148 40.0871 3.91666ZM15.8429 36.6992H9.96793V19.0742H15.8429V36.6992ZM12.9054 16.6067C12.0952 16.6067 11.3181 16.2848 10.7452 15.7119C10.1723 15.139 9.85043 14.3619 9.85043 13.5517C9.85043 12.7414 10.1723 11.9644 10.7452 11.3915C11.3181 10.8185 12.0952 10.4967 12.9054 10.4967C13.3357 10.4479 13.7714 10.4905 14.184 10.6218C14.5966 10.753 14.9768 10.97 15.2998 11.2584C15.6228 11.5468 15.8812 11.9002 16.0581 12.2954C16.235 12.6906 16.3265 13.1187 16.3265 13.5517C16.3265 13.9847 16.235 14.4128 16.0581 14.808C15.8812 15.2032 15.6228 15.5565 15.2998 15.8449C14.9768 16.1334 14.5966 16.3503 14.184 16.4816C13.7714 16.6128 13.3357 16.6555 12.9054 16.6067ZM37.0321 36.6992H31.1571V27.2404C31.1571 24.8708 30.315 23.3237 28.1804 23.3237C27.5198 23.3286 26.8765 23.5358 26.3373 23.9175C25.7981 24.2991 25.3888 24.8369 25.1646 25.4583C25.0113 25.9186 24.9449 26.4034 24.9688 26.8879V36.6796H19.0938C19.0938 36.6796 19.0938 20.6604 19.0938 19.0546H24.9688V21.5417C25.5025 20.6156 26.2787 19.8526 27.2139 19.335C28.149 18.8174 29.2077 18.5647 30.2758 18.6042C34.1925 18.6042 37.0321 21.1304 37.0321 26.555V36.6992Z" fill="#D4D4D4"/>
</svg>
