<svg width="47" height="47" viewBox="0 0 47 47" fill="none" xmlns="http://www.w3.org/2000/svg">
<path d="M23.5 3.91667C19.6268 3.91667 15.8405 5.06521 12.6201 7.21705C9.39962 9.3689 6.88957 12.4274 5.40736 16.0058C3.92514 19.5842 3.53733 23.5217 4.29295 27.3205C5.04858 31.1193 6.91371 34.6087 9.65249 37.3475C12.3913 40.0863 15.8807 41.9514 19.6795 42.707C23.4783 43.4627 27.4158 43.0749 30.9942 41.5926C34.5726 40.1104 37.6311 37.6004 39.7829 34.3799C41.9348 31.1595 43.0833 27.3732 43.0833 23.5C43.0833 20.9283 42.5768 18.3817 41.5926 16.0058C40.6085 13.6298 39.166 11.471 37.3475 9.65249C35.529 7.83401 33.3702 6.39151 30.9942 5.40736C28.6183 4.4232 26.0717 3.91667 23.5 3.91667ZM23.5 7.83333C27.5238 7.83173 31.3916 9.39007 34.2904 12.1808C31.2981 13.9359 28.1273 15.367 24.8317 16.45C23.1915 13.6238 21.3111 10.944 19.2112 8.44042C20.6055 8.03895 22.0491 7.83461 23.5 7.83333ZM15.4512 10.0854C17.503 12.4325 19.3444 14.9554 20.9542 17.625C17.1102 18.5795 13.1649 19.0661 9.20416 19.0742H8.49917C9.60994 15.3135 12.0906 12.106 15.4512 10.0854ZM11.75 33.8987C9.20173 31.0371 7.80607 27.3317 7.83333 23.5C7.83333 23.3042 7.83333 23.1083 7.83333 22.9321H9.165C13.8011 22.8906 18.4111 22.2321 22.8733 20.9737C23.5 22.1683 24.0875 23.4021 24.6554 24.675C21.6033 25.7509 18.7608 27.3478 16.2542 29.3946L15.6667 29.8646C14.2706 31.1184 12.962 32.4662 11.75 33.8987ZM23.5 39.1667C20.3786 39.1736 17.3277 38.2385 14.7462 36.4837C15.6996 35.3902 16.7199 34.3568 17.8012 33.3896L18.4279 32.8608C20.7449 30.9121 23.4001 29.4053 26.2612 28.4154C27.4389 31.5996 28.3558 34.8743 29.0029 38.2071C27.24 38.8507 25.3767 39.1757 23.5 39.1667ZM32.5671 36.2487C31.9264 33.2849 31.089 30.3671 30.0604 27.5146H30.7262C30.8034 27.4955 30.8841 27.4955 30.9613 27.5146H31.1767H31.3725H32.3125C34.3734 27.5205 36.4187 27.8713 38.3637 28.5525C37.2951 31.667 35.2654 34.3618 32.5671 36.2487ZM32.3125 23.5C31.9012 23.5 31.49 23.5 31.0983 23.5C30.8448 23.4681 30.5882 23.4681 30.3346 23.5C29.8023 23.5327 29.2726 23.5981 28.7483 23.6958H28.5525C27.9846 22.3837 27.3971 21.1108 26.7508 19.7792C30.2575 18.5749 33.6253 16.9993 36.7971 15.0792C38.3705 17.6042 39.1924 20.525 39.1667 23.5C39.1667 23.8329 39.1667 24.1658 39.1667 24.4987C36.9473 23.8138 34.6351 23.4768 32.3125 23.5Z" fill="#D4D4D4"/>
</svg>
