<svg width="50" height="50" viewBox="0 0 50 50" fill="none" xmlns="http://www.w3.org/2000/svg">
<g clip-path="url(#clip0_17_26)">
<path d="M41.6667 8.33333H8.33334C6.04167 8.33333 4.18751 10.2083 4.18751 12.5L4.16667 37.5C4.16667 39.7917 6.04167 41.6667 8.33334 41.6667H41.6667C43.9583 41.6667 45.8333 39.7917 45.8333 37.5V12.5C45.8333 10.2083 43.9583 8.33333 41.6667 8.33333ZM39.5833 37.5H10.4167C9.27084 37.5 8.33334 36.5625 8.33334 35.4167V16.6667L22.7917 25.7083C24.1458 26.5625 25.8542 26.5625 27.2083 25.7083L41.6667 16.6667V35.4167C41.6667 36.5625 40.7292 37.5 39.5833 37.5ZM25 22.9167L8.33334 12.5H41.6667L25 22.9167Z" fill="#D4D4D4"/>
</g>
<defs>
<clipPath id="clip0_17_26">
<rect width="50" height="50" fill="white"/>
</clipPath>
</defs>
</svg>
