<svg width="47" height="47" viewBox="0 0 47 47" fill="none" xmlns="http://www.w3.org/2000/svg">
<path d="M14.045 11.1926C7.27651 11.1926 1.78973 16.7155 1.78973 23.532C2.43598 39.9025 25.6573 39.895 26.3007 23.532C26.3012 16.7174 20.8135 11.1926 14.045 11.1926ZM33.6177 11.9164C30.2337 11.9164 27.4898 17.1183 27.4898 23.532C27.8259 38.9465 39.4104 38.9465 39.7455 23.532C39.7455 17.1183 37.0021 11.9164 33.6177 11.9164ZM43.09 13.1247C40.2592 13.325 40.2653 33.7507 43.0896 33.9392C45.9194 33.7408 45.9143 13.3123 43.09 13.1247Z" fill="#D4D4D4"/>
<path d="M42.973 12.4912C40.9318 12.4912 40.3627 17.9521 40.2043 21.2299C39.7916 17.2518 38.3299 13.8655 36.2422 12.267C35.5231 11.7293 34.709 12.8037 35.4117 13.3518C37.5347 14.9775 38.9606 19.0703 38.9606 23.5353C38.9606 29.4333 36.4795 34.4158 33.5429 34.4158C30.6064 34.4158 28.1257 29.4328 28.1257 23.5353C28.1257 17.6372 30.6069 12.6548 33.5429 12.6548C33.9199 12.6548 34.2259 12.3493 34.2259 11.9718C34.2259 11.5944 33.9199 11.2889 33.5429 11.2889C30.064 11.2889 27.276 15.7897 26.8248 21.8118C25.9839 15.4743 20.5813 10.5684 14.0582 10.5684C11.4755 10.5684 8.98404 11.3345 6.85259 12.784C6.1255 13.3043 6.8634 14.405 7.62104 13.9134C15.1533 8.70487 25.6545 14.3656 25.576 23.5357C25.576 29.9329 20.4093 35.1372 14.0582 35.1372C3.78537 35.156 -1.34327 22.3786 6.02304 15.2238C6.65848 14.5864 5.71096 13.6295 5.06612 14.2485C2.55679 16.7099 1.17499 20.0084 1.17499 23.5353C1.68071 39.6971 24.2478 41.1142 26.8252 25.2587C27.8804 38.7571 38.6857 39.4678 40.2066 25.8796C40.3673 29.1616 40.9398 34.5788 42.9726 34.5788C46.7763 34.7142 46.7753 12.3657 42.973 12.4912ZM42.9726 33.1599C41.0559 30.785 41.0723 16.2343 42.973 13.9106C44.8897 16.2836 44.8718 30.8367 42.9726 33.1599Z" fill="#D4D4D4"/>
</svg>
